<svg xmlns="http://www.w3.org/2000/svg" xmlns:xlink="http://www.w3.org/1999/xlink" width="1em" height="1em" preserveAspectRatio="xMidYMid meet" viewBox="0 0 20 20" style="-ms-transform: rotate(360deg); -webkit-transform: rotate(360deg); transform: rotate(360deg);"><g fill="none"><g clip-path="url(#IconifyId-182a5721e09-f9c7ef-2080)"><path stroke="white" stroke-linecap="round" stroke-width="2" d="M2.979 2.636v-.003h.003a36.006 36.006 0 0 1 1.815-.115c1.46-.058 3.193-.05 4.48.142a.386.386 0 0 1 .21.117l7.754 7.753a.5.5 0 0 1 0 .708l-5.657 5.656a.5.5 0 0 1-.707 0L3.123 9.141a.386.386 0 0 1-.117-.21c-.192-1.287-.2-3.02-.142-4.48c.028-.722.073-1.359.115-1.815Z"/><circle cx="7.435" cy="7.173" r="1" fill="white" transform="rotate(-45 7.435 7.173)"/></g><defs><clipPath id="IconifyId-182a5721e09-f9c7ef-2080"><path fill="#fff" d="M0 0h20v20H0z"/></clipPath></defs></g></svg>