<svg xmlns="http://www.w3.org/2000/svg" xmlns:xlink="http://www.w3.org/1999/xlink" width="1em" height="1em" preserveAspectRatio="xMidYMid meet" viewBox="0 0 24 24" style="-ms-transform: rotate(360deg); -webkit-transform: rotate(360deg); transform: rotate(360deg);"><g fill="none" stroke="white" stroke-linecap="round" stroke-linejoin="round" stroke-width="2"><path d="M10 17h6V6a2 2 0 0 0-2-2H4a2 2 0 0 0-2 2v10a1 1 0 0 0 1 1h1m18-1v-4a4 4 0 0 0-4-4h-2v9h5a1 1 0 0 0 1-1Zm-7 1a3 3 0 1 0 6 0h-6Zm7-3h-2"/><circle cx="7" cy="17" r="3"/></g></svg>